<svg width="187" height="116" viewBox="0 0 187 116" fill="none" xmlns="http://www.w3.org/2000/svg">
<path d="M112.806 84.2066C113.464 85.0824 114.561 85.7392 115.658 85.5202C116.316 85.5202 116.974 85.3013 117.633 84.8634C117.852 84.6445 118.071 84.6445 118.291 84.6445L119.607 84.8634C120.923 85.0824 122.459 85.0824 123.776 84.8634C125.75 84.6445 127.944 84.2066 129.918 83.112C131.674 82.2362 132.771 81.1416 133.648 79.609C134.306 78.5144 134.964 77.2008 135.403 75.8872C136.72 72.6032 137.378 69.3192 138.036 65.8162C138.475 63.189 139.791 56.4021 138.694 53.556C137.817 51.5856 136.061 50.4909 133.868 50.053C133.429 50.053 133.209 50.053 132.771 50.053C131.015 50.2719 129.699 51.1477 128.383 52.4613C127.066 53.7749 125.75 55.3074 124.873 56.84C123.337 59.0293 122.24 61.2186 121.143 63.6269C120.923 64.0648 120.923 64.5026 120.265 64.9405V64.2837C120.265 63.6269 120.485 63.189 120.485 62.5322C121.362 57.2778 122.679 52.2424 124.214 46.9879C125.531 42.3903 127.286 38.0117 128.822 33.633C129.26 32.3194 129.699 31.0058 129.699 29.4733V29.0354C129.699 28.1597 129.26 27.5029 128.383 27.065C127.944 26.8461 127.286 26.8461 126.847 26.8461C126.189 26.8461 125.311 27.2839 124.653 27.9407C123.337 29.2543 122.24 31.0058 121.362 32.5383C119.827 35.3845 118.73 38.4495 117.633 41.5146C114.781 49.6152 112.806 57.4968 111.709 65.5973C111.49 67.1298 111.27 68.6624 111.27 70.1949C111.051 73.26 111.051 76.1061 111.051 79.1712C111.49 81.1416 111.709 82.6741 112.806 84.2066ZM124.653 66.0352C126.408 62.7512 128.383 59.4672 131.235 56.621C131.235 58.5914 131.015 59.6861 130.796 61.6565C130.138 64.7216 129.48 67.5677 128.822 70.6328C128.383 72.6032 127.505 74.5736 126.628 76.544C125.969 77.8576 125.092 78.7333 123.776 79.609C122.459 80.2658 121.143 80.9226 119.607 81.3605C120.265 76.1061 122.02 70.8517 124.653 66.0352Z" fill="url(#paint0_linear)"/>
<path d="M79.8974 70.1949C79.678 71.7274 79.8974 73.26 79.8974 74.7925C79.8974 77.8576 80.1168 80.7037 80.3362 83.5498C80.5556 85.3013 80.9944 86.8338 82.0913 88.3664C82.9689 89.2421 83.8465 89.68 84.9434 89.461C85.6016 89.461 86.2597 89.0232 86.9179 88.5853C87.1373 88.3664 87.3567 88.3664 87.5761 88.3664C91.7445 88.8042 95.6936 88.3664 99.2038 86.177C104.689 82.893 105.566 74.1357 106.224 68.6624C106.444 66.0351 107.321 59.2482 106.005 56.4021C103.811 52.0234 98.5456 52.6802 95.4742 55.9642C94.1578 57.2778 93.0609 58.8103 92.1833 60.5618C90.867 62.7512 89.77 65.1594 88.8924 67.3487C88.673 67.7866 88.673 68.2245 88.2343 68.6624V68.0056C88.2343 67.3487 88.4537 66.9109 88.4537 66.2541C88.8924 60.9997 89.77 55.9642 91.0863 50.7098C92.1833 46.1122 93.4996 41.7335 94.816 37.1359C95.2548 35.8223 95.4742 34.5087 95.4742 32.9762V32.5383C95.4742 31.6626 94.816 31.0058 93.9384 30.7869C93.4996 30.5679 92.8415 30.5679 92.4027 30.5679C91.5251 30.5679 90.8669 31.0058 90.2088 31.8815C88.8924 33.4141 88.0149 34.9466 87.3567 36.6981C86.0404 39.5442 84.9434 42.6093 84.2852 45.6743C81.8719 53.9938 80.3362 62.0943 79.8974 70.1949ZM92.6221 69.5381C94.1578 66.0351 95.9129 62.9701 98.5456 59.905C98.765 61.8754 98.5456 62.9701 98.3262 64.9405C97.8875 67.7866 97.6681 70.8517 97.0099 73.9168C96.5711 75.8872 95.9129 77.8576 95.2548 79.828C94.816 81.1416 93.9384 82.2362 92.6221 83.112C91.3057 83.9877 89.9894 84.6445 88.4537 85.0824C89.1118 79.828 90.4282 74.5736 92.6221 69.5381Z" fill="url(#paint1_linear)"/>
<path d="M177.965 81.1416C180.159 81.5794 182.133 80.4848 182.133 78.5144C182.133 76.544 180.378 74.3546 177.965 73.9168C175.771 73.4789 173.797 74.5736 173.797 76.544C173.797 78.2954 175.552 80.4848 177.965 81.1416Z" fill="url(#paint2_linear)"/>
<path d="M120.265 91.4314C95.2548 90.1178 73.5351 95.1533 52.4736 109.603C46.3306 113.544 47.8664 114.201 55.7644 110.479C72.8769 102.159 98.1068 95.8101 116.097 98.2184C129.26 99.9698 136.72 92.3072 120.265 91.4314Z" fill="url(#paint3_linear)"/>
<path d="M63.8819 88.5853C64.5401 87.0528 64.9788 85.7392 65.4176 84.4256C65.637 84.8634 65.637 85.3013 65.8564 85.9581C66.0758 87.4906 66.734 88.8042 67.3922 89.8989C68.9279 92.0882 71.3412 92.3072 73.7545 91.8693C74.1933 91.8693 74.8514 91.6504 75.2902 91.4314C76.3872 90.9936 76.8259 90.3368 76.8259 89.68C76.8259 89.2421 76.6066 89.0232 76.3872 88.5853C75.2902 87.2717 74.8514 85.7392 74.4127 84.2066C73.9739 82.893 73.9739 81.7984 73.7545 80.4848C73.5351 78.5144 73.7545 76.325 73.7545 74.1357C73.7545 70.6328 74.1933 67.1298 74.4127 63.6269C74.4127 62.3133 74.4127 60.9997 73.9739 59.905C72.8769 57.2778 69.3667 57.9346 67.8309 59.905C66.734 61.4375 66.0758 64.5026 65.8564 66.2541C64.9788 70.6328 64.3207 75.2304 63.0043 79.609C62.1268 82.6741 60.8104 85.7392 58.8359 88.5853C58.6165 88.8042 58.6165 89.2421 58.1777 89.2421C57.3002 88.8042 56.8614 83.3309 56.642 82.4552C56.4226 79.609 56.4226 76.7629 56.4226 74.1357C56.4226 73.9168 56.4226 73.6978 56.4226 73.6978C56.4226 70.8517 57.3002 65.8162 56.2032 63.189C55.1063 60.9997 51.8154 61.6565 50.7184 63.408C46.9888 69.1002 46.9888 87.2717 50.4991 92.0882C54.0093 97.3426 61.9074 94.2776 63.8819 88.5853Z" fill="url(#paint4_linear)"/>
<path d="M185.205 93.1829C181.475 88.3664 173.358 86.396 164.143 86.6149L166.995 76.1061L167.434 74.5735C168.531 70.4138 169.848 66.2541 170.725 62.0943C171.164 60.1239 171.822 58.1535 172.042 56.1831L172.261 54.6506C172.48 53.5559 172.48 52.4613 172.042 51.5855C171.603 50.7098 170.506 50.053 169.409 50.053C168.312 50.053 166.995 50.7098 166.118 51.5855C165.46 52.2423 165.021 53.1181 164.802 53.9938L160.633 63.189C158.878 66.9109 156.904 70.6327 154.49 73.9167C153.613 75.2303 152.516 76.544 151.419 77.6386C150.761 78.2954 150.102 79.1712 150.102 77.6386C149.883 76.1061 150.322 74.7925 150.322 73.26C150.322 72.3842 150.541 71.5085 150.761 70.6328C151.199 68.2245 151.858 65.8162 152.296 63.6269C152.296 63.189 152.516 62.5322 152.735 62.0943C153.613 59.4671 154.49 57.0589 155.148 54.4317L155.368 53.5559C155.587 52.8991 155.587 52.2423 155.587 51.5855C155.368 50.4909 154.929 49.8341 153.832 49.6151H152.954C152.077 49.6151 151.199 49.8341 150.322 50.7098C149.225 51.8045 148.347 53.1181 147.689 54.4317C146.153 57.4967 145.276 60.5618 144.398 63.6269C143.74 65.8162 143.301 68.0055 142.863 70.1949C142.643 71.9463 142.204 73.6978 142.204 75.4493C142.204 76.9818 142.204 78.5144 142.643 79.828C143.301 81.3605 144.179 82.6741 145.934 83.112C146.373 83.3309 146.812 83.3309 147.25 83.5498C147.25 83.5498 149.444 83.7688 151.419 83.112C152.296 82.6741 153.174 82.2362 154.051 81.3605C154.271 81.1416 154.49 80.7037 154.71 80.4848C155.148 79.828 155.807 79.1712 156.245 78.5144C157.123 77.2008 158.001 75.6682 158.659 74.3546C158.878 74.1357 158.878 73.9168 159.317 73.6978V74.3546C159.097 75.4493 158.659 76.544 158.439 77.6386C158.22 78.5144 158 79.1712 157.781 80.0469L155.368 87.4906C155.368 87.4906 145.495 89.2421 137.597 94.4965C115.877 108.946 141.327 118.798 152.954 108.508C154.71 106.976 156.026 105.005 157.342 103.035C159.756 99.313 161.291 95.1533 162.827 91.2125C162.827 90.9936 162.827 90.9936 163.046 90.7746C169.628 90.7746 175.113 92.745 178.623 94.0586C184.766 96.4669 178.184 98.6562 175.113 97.9994C172.042 97.3426 167.873 97.7805 171.383 100.189C174.674 102.597 192.664 102.597 185.205 93.1829ZM149.444 101.721C148.786 103.035 147.909 104.13 146.812 105.224C145.276 106.757 142.424 107.851 140.669 107.195C140.669 107.195 133.648 105.224 146.153 96.248C148.786 94.4965 151.199 93.1829 153.832 92.3072C152.954 95.3722 151.419 98.6562 149.444 101.721Z" fill="url(#paint5_linear)"/>
<path d="M18.0292 76.9818L3.11068 71.2896C0.477992 70.1949 -0.18018 70.4138 0.0392111 73.9168L1.13616 96.029C1.35555 100.189 2.45251 100.408 5.30459 97.5616L19.7844 81.7984C22.4171 79.3901 22.1977 78.7333 18.0292 76.9818ZM12.7639 81.1416L8.37606 85.9581C7.49849 86.8338 7.2791 86.8338 7.05971 85.5202L6.62093 78.9522C6.62093 77.8576 6.62093 77.8576 7.49849 78.0765L12.1057 79.828C13.422 80.2658 13.422 80.4848 12.7639 81.1416Z" fill="url(#paint6_linear)"/>
<path d="M75.729 1.23085C62.7849 -4.46142 33.3866 9.76925 2.45251 40.201C-0.618961 43.2661 2.01373 50.9287 6.84032 46.1122C38.4326 15.0237 64.1013 8.01779 71.5606 15.2426C78.5811 22.0295 69.1473 41.7335 40.6265 51.3666C40.6265 47.2069 39.9683 43.0471 39.7489 39.7631C39.7489 37.5738 39.7489 31.6626 36.6775 32.3194C33.606 32.9762 30.0957 35.8223 30.7539 39.9821C31.1927 42.8282 31.6315 46.9879 31.6315 53.7749C29.6569 54.4317 27.463 54.6506 25.0497 60.124C23.7334 63.408 30.9733 62.5322 31.6315 62.3133C31.4121 70.6328 32.0702 91.6504 23.9528 107.633C22.6364 109.822 20.8813 113.982 23.0752 115.295C25.4885 116.609 30.7539 117.266 35.5805 106.1C37.9938 100.627 39.7489 81.5794 40.4071 60.124C85.6016 46.769 99.4232 11.7397 75.729 1.23085Z" fill="url(#paint7_linear)"/>
<defs>
<linearGradient id="paint0_linear" x1="44.1436" y1="0" x2="44.1436" y2="116" gradientUnits="userSpaceOnUse">
<stop stop-color="#AF18F0"/>
<stop offset="0.0001" stop-color="#00FFE1"/>
<stop offset="0.906367" stop-color="#AF18F0"/>
</linearGradient>
<linearGradient id="paint1_linear" x1="44.1436" y1="0" x2="44.1436" y2="116" gradientUnits="userSpaceOnUse">
<stop stop-color="#AF18F0"/>
<stop offset="0.0001" stop-color="#00FFE1"/>
<stop offset="0.906367" stop-color="#AF18F0"/>
</linearGradient>
<linearGradient id="paint2_linear" x1="44.1436" y1="0" x2="44.1436" y2="116" gradientUnits="userSpaceOnUse">
<stop stop-color="#AF18F0"/>
<stop offset="0.0001" stop-color="#00FFE1"/>
<stop offset="0.906367" stop-color="#AF18F0"/>
</linearGradient>
<linearGradient id="paint3_linear" x1="44.1436" y1="0" x2="44.1436" y2="116" gradientUnits="userSpaceOnUse">
<stop stop-color="#AF18F0"/>
<stop offset="0.0001" stop-color="#00FFE1"/>
<stop offset="0.906367" stop-color="#AF18F0"/>
</linearGradient>
<linearGradient id="paint4_linear" x1="44.1436" y1="0" x2="44.1436" y2="116" gradientUnits="userSpaceOnUse">
<stop stop-color="#AF18F0"/>
<stop offset="0.0001" stop-color="#00FFE1"/>
<stop offset="0.906367" stop-color="#AF18F0"/>
</linearGradient>
<linearGradient id="paint5_linear" x1="44.1436" y1="0" x2="44.1436" y2="116" gradientUnits="userSpaceOnUse">
<stop stop-color="#AF18F0"/>
<stop offset="0.0001" stop-color="#00FFE1"/>
<stop offset="0.906367" stop-color="#AF18F0"/>
</linearGradient>
<linearGradient id="paint6_linear" x1="44.1436" y1="0" x2="44.1436" y2="116" gradientUnits="userSpaceOnUse">
<stop stop-color="#AF18F0"/>
<stop offset="0.0001" stop-color="#00FFE1"/>
<stop offset="0.906367" stop-color="#AF18F0"/>
</linearGradient>
<linearGradient id="paint7_linear" x1="44.1436" y1="0" x2="44.1436" y2="116" gradientUnits="userSpaceOnUse">
<stop stop-color="#AF18F0"/>
<stop offset="0.0001" stop-color="#00FFE1"/>
<stop offset="0.906367" stop-color="#AF18F0"/>
</linearGradient>
</defs>
</svg>
